<mxfile host="app.diagrams.net" modified="2022-11-01T10:35:27.370Z" agent="5.0 (Macintosh; Intel Mac OS X 10_15_7) AppleWebKit/537.36 (KHTML, like Gecko) Chrome/107.0.0.0 Safari/537.36" etag="Dc5C7O8EMBGDrS0eEohy" version="20.5.1" type="github">
  <diagram id="5iPT1bmhEgO66XCB6j3V" name="Page-1">
    <mxGraphModel dx="1426" dy="794" grid="1" gridSize="10" guides="1" tooltips="1" connect="1" arrows="1" fold="1" page="1" pageScale="1" pageWidth="850" pageHeight="1100" math="0" shadow="0">
      <root>
        <mxCell id="0" />
        <mxCell id="1" parent="0" />
        <mxCell id="pXsS3F8s_UKDIHt-fnVn-1" value="&lt;font style=&quot;font-size: 16px;&quot;&gt;User&lt;/font&gt;" style="shape=umlActor;verticalLabelPosition=bottom;verticalAlign=top;html=1;outlineConnect=0;" vertex="1" parent="1">
          <mxGeometry x="130" y="270" width="30" height="60" as="geometry" />
        </mxCell>
        <mxCell id="pXsS3F8s_UKDIHt-fnVn-5" value="&lt;font style=&quot;font-size: 16px;&quot;&gt;Dapp&lt;/font&gt;" style="rounded=0;whiteSpace=wrap;html=1;" vertex="1" parent="1">
          <mxGeometry x="220" y="270" width="120" height="60" as="geometry" />
        </mxCell>
        <mxCell id="pXsS3F8s_UKDIHt-fnVn-6" value="" style="endArrow=classic;html=1;rounded=0;fontSize=16;strokeWidth=1.5;entryX=0;entryY=0.5;entryDx=0;entryDy=0;" edge="1" parent="1" source="pXsS3F8s_UKDIHt-fnVn-1" target="pXsS3F8s_UKDIHt-fnVn-5">
          <mxGeometry width="50" height="50" relative="1" as="geometry">
            <mxPoint x="400" y="430" as="sourcePoint" />
            <mxPoint x="450" y="380" as="targetPoint" />
          </mxGeometry>
        </mxCell>
        <mxCell id="pXsS3F8s_UKDIHt-fnVn-8" value="" style="endArrow=classic;html=1;rounded=0;strokeWidth=1.5;fontSize=16;" edge="1" parent="1">
          <mxGeometry width="50" height="50" relative="1" as="geometry">
            <mxPoint x="340" y="300" as="sourcePoint" />
            <mxPoint x="410" y="300" as="targetPoint" />
          </mxGeometry>
        </mxCell>
        <mxCell id="pXsS3F8s_UKDIHt-fnVn-10" value="Searcher" style="rounded=1;whiteSpace=wrap;html=1;fontSize=16;fillColor=#f8cecc;strokeColor=#b85450;" vertex="1" parent="1">
          <mxGeometry x="410" y="270" width="120" height="60" as="geometry" />
        </mxCell>
        <mxCell id="pXsS3F8s_UKDIHt-fnVn-11" value="Builder" style="rounded=1;whiteSpace=wrap;html=1;fontSize=16;fillColor=#f8cecc;strokeColor=#b85450;" vertex="1" parent="1">
          <mxGeometry x="600" y="270" width="120" height="60" as="geometry" />
        </mxCell>
        <mxCell id="pXsS3F8s_UKDIHt-fnVn-12" value="" style="endArrow=classic;html=1;rounded=0;strokeWidth=1.5;fontSize=16;" edge="1" parent="1">
          <mxGeometry width="50" height="50" relative="1" as="geometry">
            <mxPoint x="530" y="299.5" as="sourcePoint" />
            <mxPoint x="600" y="299.5" as="targetPoint" />
          </mxGeometry>
        </mxCell>
        <mxCell id="pXsS3F8s_UKDIHt-fnVn-13" value="" style="endArrow=classic;html=1;rounded=0;strokeWidth=1.5;fontSize=16;" edge="1" parent="1">
          <mxGeometry width="50" height="50" relative="1" as="geometry">
            <mxPoint x="720" y="299.5" as="sourcePoint" />
            <mxPoint x="790" y="299.5" as="targetPoint" />
          </mxGeometry>
        </mxCell>
        <mxCell id="pXsS3F8s_UKDIHt-fnVn-14" value="Relay" style="rounded=1;whiteSpace=wrap;html=1;fontSize=16;fillColor=#f8cecc;strokeColor=#b85450;" vertex="1" parent="1">
          <mxGeometry x="790" y="270" width="120" height="60" as="geometry" />
        </mxCell>
        <mxCell id="pXsS3F8s_UKDIHt-fnVn-15" value="Proposer" style="rounded=1;whiteSpace=wrap;html=1;fontSize=16;fillColor=#f8cecc;strokeColor=#b85450;" vertex="1" parent="1">
          <mxGeometry x="980" y="270" width="120" height="60" as="geometry" />
        </mxCell>
        <mxCell id="pXsS3F8s_UKDIHt-fnVn-19" value="" style="endArrow=classic;html=1;rounded=0;strokeWidth=1.5;fontSize=16;" edge="1" parent="1">
          <mxGeometry width="50" height="50" relative="1" as="geometry">
            <mxPoint x="910" y="299.5" as="sourcePoint" />
            <mxPoint x="980" y="299.5" as="targetPoint" />
          </mxGeometry>
        </mxCell>
        <mxCell id="pXsS3F8s_UKDIHt-fnVn-20" value="" style="endArrow=classic;html=1;rounded=0;strokeWidth=1.5;fontSize=16;" edge="1" parent="1">
          <mxGeometry width="50" height="50" relative="1" as="geometry">
            <mxPoint x="1100" y="299.5" as="sourcePoint" />
            <mxPoint x="1170" y="299.5" as="targetPoint" />
          </mxGeometry>
        </mxCell>
        <mxCell id="pXsS3F8s_UKDIHt-fnVn-21" value="&lt;font style=&quot;font-size: 16px;&quot;&gt;on chain&lt;/font&gt;" style="rounded=0;whiteSpace=wrap;html=1;" vertex="1" parent="1">
          <mxGeometry x="1170" y="270" width="120" height="60" as="geometry" />
        </mxCell>
      </root>
    </mxGraphModel>
  </diagram>
</mxfile>
